<svg width="136" height="140" viewBox="0 0 136 140" fill="none" xmlns="http://www.w3.org/2000/svg">
<path d="M12.6179 110.346L14.8043 107.613L14.8043 107.613L12.6179 110.346ZM123.642 110.346L121.456 107.613L121.456 107.613L123.642 110.346ZM41.2105 122.222L38.4861 124.419L38.4861 124.419L41.2105 122.222ZM95.1318 124.628L92.7427 122.07L92.6767 122.132L92.6139 122.197L95.1318 124.628ZM52.3591 63.629C53.5666 62.1195 53.3219 59.917 51.8125 58.7095C50.303 57.502 48.1005 57.7467 46.893 59.2561L52.3591 63.629ZM25.7455 85.6905C24.5379 87.1999 24.7827 89.4024 26.2921 90.61C27.8015 91.8175 30.004 91.5728 31.2116 90.0633L25.7455 85.6905ZM92.0106 59.2561C90.8031 57.7467 88.6006 57.502 87.0912 58.7095C85.5817 59.917 85.337 62.1195 86.5446 63.629L92.0106 59.2561ZM107.692 90.0633C108.9 91.5728 111.102 91.8175 112.612 90.61C114.121 89.4024 114.366 87.1999 113.158 85.6905L107.692 90.0633ZM105.13 6.50258C106.625 5.27687 106.843 3.07154 105.617 1.57685C104.391 0.0821605 102.186 -0.135888 100.691 1.08983L105.13 6.50258ZM44.3512 15.2701C45.8459 16.4958 48.0512 16.2778 49.2769 14.7831C50.5026 13.2884 50.2846 11.083 48.7899 9.85733L44.3512 15.2701ZM38.0984 1.08983C36.6037 -0.135888 34.3984 0.0821606 33.1727 1.57685C31.947 3.07154 32.165 5.27687 33.6597 6.50258L38.0984 1.08983ZM98.5 36C98.5 51.7401 85.7401 64.5 70 64.5V71.5C89.6061 71.5 105.5 55.6061 105.5 36H98.5ZM70 64.5C54.2599 64.5 41.5 51.7401 41.5 36H34.5C34.5 55.6061 50.3939 71.5 70 71.5V64.5ZM41.5 36C41.5 20.2599 54.2599 7.5 70 7.5V0.5C50.3939 0.5 34.5 16.3939 34.5 36H41.5ZM70 7.5C85.7401 7.5 98.5 20.2599 98.5 36H105.5C105.5 16.3939 89.6061 0.5 70 0.5V7.5ZM40.6476 47.8348C32.8409 52.3253 18.3904 62.2042 9.17405 73.8523C4.57448 79.6654 0.972162 86.2997 0.542789 93.2054C0.0965469 100.382 3.11103 107.223 10.4314 113.079L14.8043 107.613C8.98832 102.96 7.24508 98.211 7.5293 93.6398C7.83038 88.7974 10.4467 83.5251 14.6635 78.1957C23.08 67.5585 36.6532 58.2078 44.1378 53.9026L40.6476 47.8348ZM10.4314 113.079C18.3749 119.434 30.6516 119.952 41.0286 112.852C51.4573 105.717 59.6886 91.2019 61.0504 67.8374L54.0622 67.4301C52.7805 89.4213 45.1512 101.55 37.0759 107.075C28.9488 112.636 20.078 111.832 14.8043 107.613L10.4314 113.079ZM93.3867 55.0339C100.887 59.3483 114.128 68.4114 122.217 78.7469C126.267 83.9202 128.723 89.0319 128.925 93.7489C129.116 98.2155 127.31 102.93 121.456 107.613L125.829 113.079C133.111 107.253 136.221 100.519 135.918 93.4498C135.627 86.6308 132.181 80.1188 127.73 74.4323C118.819 63.0482 104.668 53.4474 96.877 48.9661L93.3867 55.0339ZM121.456 107.613C116.182 111.832 107.311 112.636 99.1843 107.075C91.1089 101.55 83.4796 89.4213 82.1979 67.4301L75.2097 67.8374C76.5715 91.2019 84.8028 105.717 95.2315 112.852C105.608 119.952 117.885 119.434 125.829 113.079L121.456 107.613ZM31.0409 115.187L38.4861 124.419L43.935 120.024L36.4898 110.792L31.0409 115.187ZM97.521 127.186L108.889 116.566L104.111 111.451L92.7427 122.07L97.521 127.186ZM38.4861 124.419C53.4002 142.912 81.1476 144.15 97.6497 127.059L92.6139 122.197C79.0362 136.259 56.2061 135.241 43.935 120.024L38.4861 124.419ZM45.6609 107.238H91.921V100.238H45.6609V107.238ZM39.0523 121.776H101.173V114.776H39.0523V121.776ZM53.5912 91.3769H82.669V84.3769H53.5912V91.3769ZM46.893 59.2561L25.7455 85.6905L31.2116 90.0633L52.3591 63.629L46.893 59.2561ZM86.5446 63.629L107.692 90.0633L113.158 85.6905L92.0106 59.2561L86.5446 63.629ZM94.4385 15.2701L105.13 6.50258L100.691 1.08983L89.9998 9.85733L94.4385 15.2701ZM48.7899 9.85733L38.0984 1.08983L33.6597 6.50258L44.3512 15.2701L48.7899 9.85733Z" fill="black"/>
</svg>
